<svg width="76" height="76" viewBox="0 0 76 76" fill="none" xmlns="http://www.w3.org/2000/svg">
<g filter="url(#filter0_d_181_193)">
<rect x="8" y="7" width="60" height="60" rx="30" fill="#F3F4F6"/>
</g>
<path d="M34.0445 25.6436C31.1579 26.6578 28.6614 28.8423 27.2571 31.5728C26.789 32.509 26.399 33.5232 26.2429 34.6154C25.6968 37.1899 26.0869 39.9984 27.2571 42.3389C28.0373 43.8992 29.1295 45.2254 30.5338 46.3177C31.782 47.3319 33.2643 48.112 34.9026 48.5021C36.931 49.0482 39.0374 49.0482 40.9878 48.5801C42.7822 48.19 44.4985 47.3319 45.9028 46.0056C47.3851 44.6793 48.3993 42.963 48.9454 41.0126C49.5695 38.9842 49.6475 36.7998 49.2574 34.6934C45.5127 34.6934 41.768 34.6934 38.0232 34.6934C38.0232 36.2537 38.0232 37.814 38.0232 39.3743C40.2077 39.3743 42.3921 39.3743 44.4985 39.3743C44.2645 40.8566 43.3283 42.2609 42.08 43.041C41.2999 43.5871 40.3637 43.8992 39.4275 44.0552C38.4913 44.2113 37.4771 44.2113 36.541 44.0552C35.6048 43.8992 34.6686 43.4311 33.8884 42.885C32.6402 42.0268 31.626 40.7006 31.1579 39.2183C30.6118 37.736 30.6118 36.0977 31.1579 34.5374C31.548 33.5232 32.0941 32.509 32.8742 31.7288C33.8104 30.7146 35.0587 30.0125 36.4629 29.7784C37.6332 29.5444 38.8034 29.5444 39.9736 29.9345C40.9098 30.2465 41.846 30.7926 42.5481 31.4168C43.2503 30.7146 44.0304 29.9345 44.7326 29.2323C45.1226 28.8423 45.5127 28.4522 45.9028 28.0621C44.8106 27.0479 43.4843 26.1897 42.08 25.6436C39.5055 24.7855 36.619 24.7855 34.0445 25.6436Z" fill="#F3F4F6"/>
<path d="M34.0444 25.6436C36.6189 24.7855 39.5055 24.7855 42.08 25.7216C43.4842 26.2677 44.8105 27.0479 45.9027 28.1401C45.5126 28.5302 45.1226 28.9203 44.7325 29.3103C44.0304 30.0125 43.2502 30.7926 42.5481 31.4948C41.8459 30.7926 40.9097 30.2465 39.9736 30.0125C38.8813 29.7004 37.6331 29.6224 36.4629 29.8564C35.1366 30.1685 33.8884 30.8706 32.8742 31.8068C32.094 32.587 31.4699 33.6012 31.1578 34.6154C29.8316 33.6012 28.5833 32.587 27.2571 31.5728C28.6614 28.8422 31.1578 26.6578 34.0444 25.6436Z" fill="#EA4335"/>
<path d="M26.2429 34.6154C26.477 33.6012 26.789 32.587 27.2571 31.5728C28.5834 32.587 29.8316 33.6012 31.1579 34.6154C30.6118 36.0977 30.6118 37.736 31.1579 39.2963C29.8316 40.3105 28.5834 41.3247 27.2571 42.3389C26.0869 39.9204 25.6968 37.1899 26.2429 34.6154Z" fill="#FBBC05"/>
<path d="M37.9453 34.6934C41.69 34.6934 45.4348 34.6934 49.1795 34.6934C49.5696 36.7998 49.4916 38.9842 48.8674 41.0126C48.3213 42.885 47.3071 44.6013 45.8249 46.0056C44.5766 44.9914 43.3284 44.0552 42.0021 43.041C43.2503 42.1829 44.1085 40.8566 44.4206 39.3743C42.2361 39.3743 40.0517 39.3743 37.9453 39.3743C37.9453 37.814 37.9453 36.2537 37.9453 34.6934Z" fill="#4285F4"/>
<path d="M27.2571 42.3389C28.5833 41.3247 29.8316 40.3105 31.1578 39.2963C31.6259 40.7786 32.6401 42.1048 33.8884 42.963C34.6685 43.5091 35.6047 43.8992 36.5409 44.1332C37.4771 44.2893 38.4133 44.2893 39.4275 44.1332C40.3636 43.9772 41.2998 43.5871 42.08 43.119C43.3282 44.1332 44.5765 45.0694 45.9027 46.0836C44.4984 47.3319 42.8601 48.19 40.9878 48.6581C38.9594 49.1262 36.853 49.1262 34.9026 48.5801C33.3423 48.19 31.86 47.4099 30.5337 46.3957C29.2075 45.2255 28.0372 43.8212 27.2571 42.3389Z" fill="#34A853"/>
<defs>
<filter id="filter0_d_181_193" x="0" y="0" width="76" height="76" filterUnits="userSpaceOnUse" color-interpolation-filters="sRGB">
<feFlood flood-opacity="0" result="BackgroundImageFix"/>
<feColorMatrix in="SourceAlpha" type="matrix" values="0 0 0 0 0 0 0 0 0 0 0 0 0 0 0 0 0 0 127 0" result="hardAlpha"/>
<feOffset dy="1"/>
<feGaussianBlur stdDeviation="4"/>
<feColorMatrix type="matrix" values="0 0 0 0 0 0 0 0 0 0 0 0 0 0 0 0 0 0 0.05 0"/>
<feBlend mode="normal" in2="BackgroundImageFix" result="effect1_dropShadow_181_193"/>
<feBlend mode="normal" in="SourceGraphic" in2="effect1_dropShadow_181_193" result="shape"/>
</filter>
</defs>
</svg>
