<svg width="76" height="76" viewBox="0 0 76 76" fill="none" xmlns="http://www.w3.org/2000/svg">
<g filter="url(#filter0_d_181_206)">
<rect x="8" y="7" width="60" height="60" rx="30" fill="#F3F4F6"/>
</g>
<g clip-path="url(#clip0_181_206)">
<path d="M50 47.5C50 48.328 49.328 49 48.5 49H27.5C26.672 49 26 48.328 26 47.5V26.5C26 25.672 26.672 25 27.5 25H48.5C49.328 25 50 25.672 50 26.5V47.5Z" fill="#3B5998"/>
<path d="M42.5 49V40H45.5L46.25 36.25H42.5V34.75C42.5 33.25 43.2515 32.5 44.75 32.5H46.25V28.75C45.5 28.75 44.57 28.75 43.25 28.75C40.4938 28.75 38.75 30.9107 38.75 34V36.25H35.75V40H38.75V49H42.5Z" fill="#F3F4F6"/>
</g>
<defs>
<filter id="filter0_d_181_206" x="0" y="0" width="76" height="76" filterUnits="userSpaceOnUse" color-interpolation-filters="sRGB">
<feFlood flood-opacity="0" result="BackgroundImageFix"/>
<feColorMatrix in="SourceAlpha" type="matrix" values="0 0 0 0 0 0 0 0 0 0 0 0 0 0 0 0 0 0 127 0" result="hardAlpha"/>
<feOffset dy="1"/>
<feGaussianBlur stdDeviation="4"/>
<feColorMatrix type="matrix" values="0 0 0 0 0 0 0 0 0 0 0 0 0 0 0 0 0 0 0.05 0"/>
<feBlend mode="normal" in2="BackgroundImageFix" result="effect1_dropShadow_181_206"/>
<feBlend mode="normal" in="SourceGraphic" in2="effect1_dropShadow_181_206" result="shape"/>
</filter>
<clipPath id="clip0_181_206">
<rect width="24" height="24" fill="white" transform="translate(26 25)"/>
</clipPath>
</defs>
</svg>
